Coordinates

Units are S.I. units (second, meters, Newtons, ...)
If the header above contains a line with 'inDegrees', this indicates whether rotational values are in degrees (yes) or radians (no).

inDegrees=no
nColumns=21
nRows=22
DataType=double
version=3
OpenSimVersion=4.6-2026-03-31-d6972f9e6
endheader
time	/jointset/ground_pelvis/pelvis_tilt/value	/jointset/ground_pelvis/pelvis_list/value	/jointset/ground_pelvis/pelvis_rotation/value	/jointset/ground_pelvis/pelvis_tx/value	/jointset/ground_pelvis/pelvis_ty/value	/jointset/ground_pelvis/pelvis_tz/value	/jointset/hip_r/hip_flexion_r/value	/jointset/hip_r/hip_adduction_r/value	/jointset/hip_r/hip_rotation_r/value	/jointset/walker_knee_r/knee_angle_r/value	/jointset/patellofemoral_r/knee_angle_r_beta/value	/jointset/ankle_r/ankle_angle_r/value	/jointset/subtalar_r/subtalar_angle_r/value	/jointset/hip_l/hip_flexion_l/value	/jointset/hip_l/hip_adduction_l/value	/jointset/hip_l/hip_rotation_l/value	/jointset/walker_knee_l/knee_angle_l/value	/jointset/patellofemoral_l/knee_angle_l_beta/value	/jointset/ankle_l/ankle_angle_l/value	/jointset/subtalar_l/subtalar_angle_l/value
144.996	-0.153845369767432	-0.04416398489765432	-0.1829675161453771	1.185772267954724	1.008609987347393	-0.2988527172549975	0.4817893152902072	0.1005523480930729	-0.002796769891931431	0.2921086010873455	0.2921086012326206	-0.02936079217442781	0.04819511472509352	-0.0729065661870892	-0.03368185672714308	-0.06486792574924782	0.9260060465473217	0.9260060471647001	-0.6068087080653902	-0.5240745409575885
145	-0.1511564108900431	-0.04515353463319476	-0.1856754730880247	1.185332324160864	1.005776040061535	-0.2982342325298703	0.4819841601381024	0.1019642760928889	-0.003186202215831729	0.3172793720977836	0.317279372137918	-0.01480671708223691	0.04280392365768331	-0.06269982575419653	-0.03543238578026087	-0.0635443148051302	0.9622119835687517	0.962211984206798	-0.5980328155798544	-0.5249925472599148
145.004	-0.1483670728551054	-0.04628337578710559	-0.188804359452918	1.184846866603811	1.00280557715295	-0.2975743659746665	0.4826367843402329	0.1037701762547769	-0.003462701247937776	0.3447529700168425	0.3447529699475462	0.00155904099656001	0.03586350449755772	-0.05238206052937294	-0.03765438044763065	-0.06316472363828338	0.9984499212125328	0.9984499218715858	-0.5888925643586773	-0.5250719082257497
145.008	-0.1455448912484532	-0.04754227675880991	-0.192340156205997	1.184308587934617	0.9996997883615456	-0.2968694908887067	0.4837551738204338	0.1059783484800877	-0.003634955614487081	0.3742483670649949	0.3742483668854159	0.01963209139367743	0.0275287120517146	-0.04186921953435423	-0.04040583808315502	-0.06367684870505358	1.034706045640138	1.034706046319274	-0.5794844604058812	-0.5244123316838384
145.012	-0.1427626172863488	-0.04892167839777687	-0.1962606057927006	1.183710208120321	0.9964622382080993	-0.2961170416845708	0.4853343139450265	0.1085953550082013	-0.003700367161921106	0.4054495195070696	0.4054495192203207	0.03924297964125702	0.01795245325652505	-0.03106764455152154	-0.04374290684776688	-0.06500607523512961	1.070965041478673	1.070965042174991	-0.569904057940627	-0.5231222017909479
145.016	-0.1400957056003788	-0.05041624907900537	-0.2005348187371357	1.183044854505487	0.9930993667268844	-0.2953157293703278	0.4873544118198933	0.1116256186841023	-0.003645498268872238	0.4380105983188763	0.4380105979323846	0.06016575175023869	0.007284268802087799	-0.0198777038565106	-0.04771784577533015	-0.06705640225046879	1.107206572681793	1.107206573389819	-0.5602451260680271	-0.5213161080996835
145.02	-0.1376194641127271	-0.05202404716719025	-0.2051229588618481	1.18230644762967	0.9896209003442987	-0.2944657483845704	0.4897796543894062	0.1150705536184689	-0.003447574489502002	0.4715627284134105	0.4715627279388694	0.08212904551480918	-0.004330099925576147	-0.008197692306259271	-0.05237658003873512	-0.06971188308119379	1.143402118489034	1.143402119200404	-0.5505986389156823	-0.5191123198390269
145.024	-0.135405955520864	-0.05374627905767518	-0.2099760605114833	1.181490076484675	0.9860401502436102	-0.2935689629086817	0.4925574927754061	0.1189272645513154	-0.003076856129106958	0.5057218865561915	0.505721886008915	0.1048289446795351	-0.01674840181694398	0.004072095432274012	-0.05775592128647025	-0.07283863030340405	1.179512265793802	1.179512266497299	-0.5410516491577612	-0.5166302800727846
145.028	-0.1335207761734764	-0.05558667495433069	-0.2150360339094678	1.180592346014757	0.9823741800226289	-0.292629058974252	0.4956184300362286	0.1231869121332525	-0.002499605797338766	0.5400975262594885	0.5400975256571696	0.1279427445876992	-0.02983113259469007	0.01702523793442691	-0.06388057628374597	-0.07628742193222679	1.215484543910596	1.215484544592509	-0.5316861073661873	-0.5139881910408255
145.032	-0.1320198683345681	-0.05755053041613493	-0.2202359060692528	1.17961167932683	0.9786438295583857	-0.291651649127393	0.4988762921165509	0.1278328824494804	-0.001681342284248705	0.5743014641533297	0.5743014635144524	0.1511427700218312	-0.04344065573281537	0.03074515295320047	-0.07076010643388375	-0.07989691399653939	1.251251876764873	1.251251877409538	-0.5225776696633655	-0.51130073862298
145.036	-0.1309465335909958	-0.05964348617438634	-0.2255003312384875	1.178548557902289	0.974873588638119	-0.2906443181048972	0.5022289579252288	0.1328389267949341	-0.0005900825376525017	0.6079565617920146	0.6079565611343183	0.1741094464547165	-0.05744043943074251	0.04530131126964462	-0.07838603242234328	-0.08349743067784156	1.286731710827179	1.286731711417657	-0.5137945238273379	-0.508676981518576
145.04	-0.1303288101206802	-0.06187014341491499	-0.230746394506515	1.177405686027086	0.9710913218628359	-0.2896165996018188	0.5055595123493405	0.1381674581957068	0.0008006800214949771	0.6407047670297328	0.6407047663691248	0.1965429449865987	-0.07169461135174428	0.06074583858857578	-0.08672930316883248	-0.08691527742048569	1.32182584630561	1.321825846824688	-0.505396273712997	-0.5062184269961989
145.044	-0.1301773606266284	-0.06423263062100444	-0.2358847221605039	1.176188070099852	0.9673278544195781	-0.2885798765705055	0.5087377773725813	0.1437681984095466	0.002509451547315349	0.6722141450735009	0.672214144423612	0.2181728765718954	-0.08606797766578467	0.07711061876233265	-0.09573835452547062	-0.0899774920577488	1.356420959905881	1.356420960337507	-0.4974329393186628	-0.5040173266715114
145.048	-0.1304839924869701	-0.06672924309958551	-0.240820893503296	1.174903007745365	0.9636164352802574	-0.2875472020909879	0.5116221752533584	0.1495773516616308	0.004544798486465785	0.7021846233010113	0.7021846226732538	0.2387656849356825	-0.1004265772510635	0.09440498707441863	-0.1053379571365779	-0.09251689492660796	1.390389774674593	1.39038977500555	-0.4899441391623558	-0.5021552288410324
145.052	-0.1312208964419866	-0.06935326647043456	-0.2454571220664399	1.173559985670174	0.9599921001463119	-0.2865330441205685	0.5140618745662044	0.1555174397821635	0.00690406914055443	0.7303522749494337	0.7303522743532147	0.2581295717666884	-0.1146387539247214	0.1126140809594011	-0.1154289954944911	-0.09437722869767794	1.423592808371536	1.423592808592782	-0.482958524076219	-0.5007018088845344
145.056	-0.1323406820410294	-0.07209206732765738	-0.2496941542063234	1.172170488839569	0.9564909573032673	-0.285552962675705	0.5158992072378148	0.1614978780966086	0.009572795786080036	0.7564920759750725	0.7564920754179544	0.2761169512513537	-0.1285766572858206	0.131697934044546	-0.1258892557914768	-0.09541813456155838	1.45588062275185	1.455880622858997	-0.4764935109690375	-0.4997139719603454
145.06	-0.1337773759808251	-0.07492647977622625	-0.2534333347715991	1.170747724776126	0.9531494071980203	-0.2846232295697239	0.5169725177681004	0.16741631382655	0.01252472327261079	0.7804192178465126	0.7804192173343714	0.2926245256454784	-0.1421180500891223	0.1515915355403269	-0.1365752644783683	-0.09551973504638786	1.487096527207814	1.487096527200594	-0.4705552792909123	-0.4992351750580178
145.064	-0.1354486217594161	-0.0778304656277005	-0.2565788005301612	1.169306267953044	0.9500032937143948	-0.28376040091215	0.5171197618193872	0.1731606933835614	0.01572234157625326	0.8019892006045873	0.8019892001418589	0.3075911402119912	-0.1551482842792212	0.1722061891526963	-0.1473251935236713	-0.09458665703225999	1.517079722466688	1.517079722347721	-0.4651389033644954	-0.4992948861338184
145.068	-0.13725911308543	-0.08077103062815158	-0.2590397447039684	1.167861637477151	0.9470870035386471	-0.2829808572002394	0.5161829412654557	0.178611960208585	0.01911778747593123	0.8210969343315051	0.8210969339214134	0.3209937340708613	-0.1675622669352591	0.1934322715362071	-0.1579627551814181	-0.0925513489416349	1.545668802491628	1.545668802265125	-0.4602285673378894	-0.499908165711296
145.072	-0.139104940835366	-0.08370841572196587	-0.2607326510693011	1.166429833063706	0.9444325660713573	-0.2823003335498409	0.5140130147795176	0.1836472215224135	0.02265401029004531	0.8376749745034806	0.8376749741480423	0.3328418984445289	-0.1792662146594399	0.2151430778035306	-0.1683018706925427	-0.08937651041831415	1.572705410976998	1.572705410647964	-0.4557979966217072	-0.5010754608325946
145.076	-0.1408784891548409	-0.0865965870650854	-0.2615833755565389	1.165026856853146	0.9420688072625302	-0.2817334643333302	0.5104748771818011	0.1881432140889023	0.0262661001658402	0.8516910049765894	0.8516910046762907	0.3431715710869463	-0.1901790633768382	0.2371994049156509	-0.1781518548551455	-0.0850564386933869	1.598037844055999	1.598037843630234	-0.4518112679635513	-0.5027826906168539
145.08	-0.1424737359143913	-0.08938402318761504	-0.261528974012091	1.163668242421116	0.94002058018941	-0.2812933612103293	0.5054523128465899	0.1919799384790348	0.02988265738039887	0.8631447768007044	0.8631447765539684	0.352038246094272	-0.2002335123723012	0.2594547960900231	-0.1873229175074969	-0.0796171515447817	1.62152448899897	1.621524488483776	-0.4482240016944029	-0.5050016006520044
